<svg id="Layer_1" data-name="Layer 1" xmlns="http://www.w3.org/2000/svg" xmlns:xlink="http://www.w3.org/1999/xlink" viewBox="0 0 86.69 85.63"><defs><style>.cls-1{fill:none;}.cls-2{fill:#88ba5a;}.cls-3{fill:#fff;}.cls-4{fill:#231f20;}.cls-5{fill:#0c8040;}.cls-6{fill:#0e7e3f;}.cls-7{fill:#d32129;}.cls-8{clip-path:url(#clip-path);}.cls-9{clip-path:url(#clip-path-2);}.cls-10{fill:#fdfdfd;}.cls-11{fill:#fbfbfb;}.cls-12{fill:#faf9f9;}.cls-13{fill:#f8f7f7;}.cls-14{fill:#f6f5f5;}.cls-15{fill:#f4f3f3;}.cls-16{fill:#f3f1f1;}.cls-17{fill:#f1f0ef;}.cls-18{fill:#efeeee;}.cls-19{fill:#eeedec;}.cls-20{fill:#edebeb;}.cls-21{fill:#ebeae9;}.cls-22{fill:#eae8e8;}.cls-23{fill:#e8e7e6;}.cls-24{fill:#e7e5e5;}.cls-25{fill:#e6e4e3;}.cls-26{fill:#e4e2e2;}.cls-27{fill:#e3e1e1;}.cls-28{fill:#e2dfdf;}.cls-29{fill:#e0dede;}.cls-30{fill:#dfdddc;}.cls-31{fill:#dedbdb;}.cls-32{fill:#dcdada;}.cls-33{fill:#dbd8d8;}.cls-34{fill:#dad7d7;}.cls-35{fill:#d8d6d5;}.cls-36{fill:#d7d4d4;}.cls-37{fill:#d6d3d3;}.cls-38{fill:#d4d1d1;}.cls-39{fill:#d3d0d0;}.cls-40{fill:#d2cfce;}.cls-41{fill:#d0cdcd;}.cls-42{fill:#cfcccc;}.cls-43{fill:#cdcaca;}.cls-44{fill:#ccc9c9;}.cls-45{fill:#cbc7c7;}.cls-46{fill:#c9c6c6;}.cls-47{fill:#c8c5c5;}.cls-48{fill:#c7c3c3;}.cls-49{fill:#c5c2c2;}.cls-50{fill:#c4c0c0;}.cls-51{fill:#c3bfbf;}.cls-52{fill:#c1bebe;}.cls-53{fill:#c0bcbc;}.cls-54{fill:#bfbbbb;}.cls-55{fill:#bdbab9;}.cls-56{fill:#bcb8b8;}.cls-57{fill:#bbb7b7;}.cls-58{fill:#bab5b5;}.cls-59{fill:#b8b4b4;}.cls-60{fill:#b7b3b3;}.cls-61{fill:#b6b1b1;}.cls-62{fill:#b4b0b0;}.cls-63{fill:#b3aeae;}.cls-64{fill:#b2adad;}.cls-65{fill:#b0acac;}.cls-66{fill:#afaaaa;}.cls-67{fill:#aea9a9;}.cls-68{fill:#ada8a8;}.cls-69{fill:#aba6a6;}.cls-70{fill:#aaa5a5;}.cls-71{fill:#a9a4a4;}.cls-72{fill:#a8a2a3;}.cls-73{fill:#a6a1a1;}.cls-74{fill:#a5a0a0;}.cls-75{fill:#a49f9f;}.cls-76{fill:#a29d9d;}.cls-77{fill:#a19c9c;}.cls-78{fill:#a09b9b;}.cls-79{fill:#9f9999;}.cls-80{fill:#9d9898;}.cls-81{fill:#9c9797;}.cls-82{fill:#9b9596;}.cls-83{fill:#9a9494;}.cls-84{fill:#989393;}.cls-85{fill:#979292;}.cls-86{fill:#969091;}.cls-87{fill:#958f8f;}.cls-88{fill:#938e8e;}.cls-89{fill:#928c8d;}.cls-90{fill:#918b8b;}.cls-91{fill:#908a8a;}.cls-92{fill:#8e8989;}.cls-93{fill:#8d8788;}.cls-94{fill:#8c8686;}.cls-95{fill:#8b8585;}.cls-96{fill:#898484;}.cls-97{fill:#888282;}.cls-98{fill:#878181;}.cls-99{fill:#868080;}.cls-100{fill:#857f7f;}.cls-101{fill:#837d7e;}.cls-102{fill:#827c7c;}.cls-103{fill:#817b7b;}.cls-104{fill:#807a7a;}.cls-105{fill:#7f7879;}.cls-106{fill:#7e7777;}.cls-107{fill:#7c7676;}.cls-108{fill:#7b7575;}.cls-109{fill:#7a7474;}.cls-110{fill:#797373;}.cls-111{fill:#787172;}.cls-112{fill:#767070;}.cls-113{fill:#756f6f;}.cls-114{fill:#746e6e;}.cls-115{fill:#736d6d;}.cls-116{fill:#726c6c;}.cls-117{fill:#716b6b;}.cls-118{fill:#706a6a;}.cls-119{fill:#6f6869;}.cls-120{fill:#6d6767;}.cls-121{fill:#6c6666;}.cls-122{fill:#6b6565;}.cls-123{fill:#6a6464;}.cls-124{fill:#696363;}.cls-125{fill:#686262;}.cls-126{fill:#676161;}.cls-127{fill:#666060;}.cls-128{fill:#655f5f;}.cls-129{fill:#645d5e;}.cls-130{fill:#635c5c;}.cls-131{fill:#625b5b;}.cls-132{fill:#615a5a;}.cls-133{fill:#605959;}.cls-134{fill:#5e5858;}.cls-135{fill:#5d5757;}.cls-136{fill:#5c5656;}.cls-137{fill:#5b5555;}.cls-138{fill:#5a5454;}.cls-139{fill:#595353;}.cls-140{fill:#585252;}.cls-141{fill:#575151;}.cls-142{fill:#565050;}.cls-143{fill:#554f4f;}.cls-144{fill:#544e4e;}.cls-145{fill:#534d4d;}.cls-146{fill:#524c4c;}.cls-147{fill:#514b4c;}.cls-148{fill:#504b4b;}.cls-149{fill:#4f4a4a;}.cls-150{fill:#4e4949;}.cls-151{fill:#4d4848;}.cls-152{fill:#4c4747;}.cls-153{fill:#4b4646;}.cls-154{fill:#4b4545;}.cls-155{fill:#4a4444;}.cls-156{fill:#494343;}.cls-157{fill:#484242;}.cls-158{fill:#474141;}.cls-159{fill:#464040;}.cls-160{fill:#453f40;}.cls-161{fill:#443f3f;}.cls-162{fill:#433e3e;}.cls-163{fill:#423d3d;}.cls-164{fill:#413c3c;}.cls-165{fill:#403b3b;}.cls-166{fill:#3f3a3a;}.cls-167{fill:#3e3939;}.cls-168{fill:#3e3839;}.cls-169{fill:#3d3738;}.cls-170{fill:#3c3737;}.cls-171{fill:#3b3636;}.cls-172{fill:#3a3535;}.cls-173{fill:#393434;}.cls-174{fill:#383333;}.cls-175{fill:#373233;}.cls-176{fill:#363132;}.cls-177{fill:#353031;}.cls-178{fill:#343030;}.cls-179{fill:#332f2f;}.cls-180{fill:#322e2e;}.cls-181{fill:#322d2e;}.cls-182{fill:#312c2d;}.cls-183{fill:#302b2c;}.cls-184{fill:#2f2a2b;}.cls-185{fill:#2e2a2a;}.cls-186{fill:#2d2929;}.cls-187{fill:#2c2828;}.cls-188{fill:#2b2728;}.cls-189{fill:#2a2627;}.cls-190{fill:#292526;}.cls-191{fill:#282425;}.cls-192{fill:#272324;}.cls-193{fill:#262223;}.cls-194{fill:#262122;}.cls-195{fill:#252121;}.cls-196{fill:#242021;}</style><clipPath id="clip-path"><path class="cls-1" d="M44.42,53.79l.19-7.44Z"/></clipPath><clipPath id="clip-path-2"><rect class="cls-1" x="44.42" y="46.35" width="0.18" height="7.44"/></clipPath></defs><title>logo</title><path class="cls-2" d="M86.69,42.81c0,23.65-19.4,42.81-43.34,42.81S0,66.46,0,42.81,19.41,0,43.35,0,86.69,19.17,86.69,42.81"/><path class="cls-3" d="M74.17,34.51c0,17.31-13.5,31.35-30.16,31.35s-30.17-14-30.17-31.35S27.34,3.16,44,3.16s30.16,14,30.16,31.35"/><path class="cls-4" d="M23.05,17.51l-.26.33-1.13-.93.27-.32Zm1.49.1-.81,1L22.92,18l.35-.44,0-.28-.14-.2-1-.78.27-.33Z"/><polygon class="cls-4" points="25.18 16.89 24.87 17.24 22.88 15.43 23.19 15.09 25.18 16.89"/><path class="cls-4" d="M27.34,14.76l-1.15,1.1a.68.68,0,0,1,.17.46.58.58,0,0,1-.16.44l-.26.25-.46-.48.12-.11c.16-.15.13-.32-.07-.52l-1.11-1.17.36-.34.68.72.57-.53-.71-.73.35-.33.69.73.26-.25Zm-.42.91.08.18-.08.16-.17.07L26.58,16l-.07-.17.07-.17.34,0m.49-.47.06.18-.06.16-.18.07-.16-.07L27,15.35l.08-.17.16-.06Z"/><polygon class="cls-4" points="29.15 13.37 27.08 14.98 26.43 14.16 28.01 12.94 28.07 12.82 28.05 12.71 27.93 12.67 27.82 12.69 26.78 13.5 25.96 12.46 27.51 11.26 27.81 11.65 26.8 12.43 26.75 12.69 26.86 12.74 27 12.7 28.01 11.91 29.15 13.37"/><path class="cls-4" d="M32.87,11.14l-1.41.8.32.56-1.37.78-1.33-2.35.41-.23.87,1.53.2.13.2,0,.14-.19v-.21L30,10.4l.42-.24L31,11l.65-.38-.5-.87.44-.25.51.87.3-.17ZM29.8,10.08l0,.18-.11.14h-.17l-.13-.11v-.23l.08-.1.12,0,.2.13m2.42,1.83,0,.18-.1.15-.19,0-.15-.11,0-.19.11-.16h.18Zm.58-.33,0,.19-.09.15-.2,0-.15-.13,0-.19.12-.15h.18Z"/><path class="cls-4" d="M34.83,10.34l-2.25,1-.42-1,.69-.3,0,0-.38-.88,1.18-.51.38.86.05,0,.31-.14Zm-1-.71-.18-.17h-.25l-.19.19v.27l.19.17h.26l.16-.19Z"/><polygon class="cls-4" points="36.13 9.91 34.5 10.48 34.16 9.49 34.98 9.2 35.01 9.17 35 9.13 34.48 7.64 34.91 7.49 35.43 9 35.48 9.03 35.79 8.92 36.13 9.91"/><path class="cls-4" d="M37.13,9.61,35.82,10l-.3-1,.6-.18a.18.18,0,0,0,.12-.27l-.18-.17-.17-.53.48-.14.3.94.15-.05Z"/><polygon class="cls-4" points="38.85 9.18 36.87 9.67 36.58 8.45 36.66 8.43 36.77 8.56 36.93 8.61 37.09 8.5 37.12 8.31 36.93 8.11 36.8 7.6 37.28 7.48 37.47 8.26 37.59 8.38 37.74 8.41 37.9 8.29 37.93 8.11 37.81 7.96 37.72 7.88 37.6 7.41 38.07 7.29 38.31 8.24 38.6 8.17 38.85 9.18"/><path class="cls-4" d="M42,8.72l-3.53.49-.15-1,.86-.12,0-.1-.12-.9,1.32-.18.13,1,.8-.1,0-.06-.22-1.62L41.62,6ZM40.2,7.89l-.12-.22-.25-.06-.22.12L39.53,8l.15.23.26.07.18-.16Z"/><path class="cls-4" d="M47.32,8.85l-1.84-.1-.12-.05c-.08-.18-.15-.36-.23-.53s-.23-.47-.28-.48l-.07.06.43,1,0,.66L43,9.28l.14-2.67.47,0-.09,1.62.19.34.31.11a.44.44,0,0,0,.39-.16l.16-.36-.09-.33-.28-.18.06-1,.78,0s.09.18.19.39.12.29.17.43l.11.19.49,0,0,0,0-.12V7.45l.11-.35a.79.79,0,0,1,.34-.29l.19,0,.75,0Zm-3.26.82L44,9.82l-.15.07-.16-.07-.06-.17.07-.17.15-.07.16.08Zm.62,0-.07.15-.16.06-.15-.08-.06-.16.07-.16.15-.09.17.09ZM47,7.49,47,7.28l-.23-.1-.21.08-.1.2.08.21.21.12.22-.07Zm0-1.07L47,6.6l-.18.06-.13-.09-.07-.16.08-.17.18-.07c.13,0,.19.1.19.25"/><polygon class="cls-4" points="49.25 9.27 48.39 9.11 48.89 6.44 49.37 6.53 49.06 8.17 49.44 8.24 49.25 9.27"/><path class="cls-4" d="M51.1,9.72l-2.19-.54.25-1,.59.14,0,0,0-.26a.71.71,0,0,1,.3-.44.74.74,0,0,1,.53-.08.68.68,0,0,1,.49.84l-.1.23v.06l.33.07Zm-.36-1.45,0-.23-.19-.14-.2,0-.15.19,0,.22.18.13.23,0Zm0-1.14-.12.16-.17,0-.14-.12,0-.18.11-.15.19,0,.14.11Zm.65.16-.12.16-.16,0-.15-.12,0-.18L51,7l.16,0,.17.12Z"/><path class="cls-4" d="M52.69,10.24l-1.9-.61.32-1,1,.32.06-.07L52.41,8l.45.15-.3.93.44.13Zm0-2.53a.2.2,0,0,1-.28.16l-.14-.14V7.57l.12-.13.17,0,.13.12Zm.49-.37c-.05.14-.14.2-.27.15l-.15-.13V7.2l.11-.14L53,7l.13.12Zm.16.62-.11.12L53,8.1,52.89,8l0-.18L53,7.66l.17,0,.15.14Z"/><polygon class="cls-4" points="53.76 10.67 52.32 10.11 52.69 9.14 53.65 9.51 53.71 9.44 54.28 7.99 54.73 8.16 53.76 10.67"/><rect class="cls-4" x="53.56" y="9.47" width="2.69" height="0.46" transform="translate(23.9 56.04) rotate(-66.23)"/><path class="cls-4" d="M58.1,12.88l-.42-.23,0-1.08,0-.09-.09,0,0,1.06-.32.56-1.86-1,1.3-2.31.42.23-.8,1.43v.31l.25.29a.48.48,0,0,0,.39,0,.53.53,0,0,0,.32-.27.5.5,0,0,0-.08-.62l.48-.85.68.38,0,1.07.34.19Zm-2,0L56,13l-.16,0-.06-.3.12-.12H56l.1.16Zm.54.3-.12.1-.18,0-.1-.15,0-.15.13-.11h.16l.11.17Z"/><path class="cls-4" d="M59.07,13.58l-1.28-.86.59-.86.85.57.07,0,.5-.75.39.27Zm-.41.17-.31.08-.06-.33.15-.1.17,0,0,.32"/><path class="cls-4" d="M60.46,14.63l-1-.8.64-.84.54.41.21,0,.19-.11.08-.23-.12-.2c-.13-.11-.27-.09-.44,0l-.27-.2.4-.52,1,.79Z"/><path class="cls-4" d="M62.3,16.24,62,16h0a.57.57,0,0,1-.44.18.55.55,0,0,1-.43-.14l-.26-.22.43-.48.09.09.22.1.27-.14L63,14.15l.37.34-.67.73.27.25Z"/><polygon class="cls-4" points="63.91 17.92 62.11 16.02 62.86 15.3 64.24 16.74 64.35 16.79 64.47 16.76 64.5 16.63 64.46 16.52 63.55 15.57 64.51 14.66 65.85 16.07 65.5 16.41 64.62 15.49 64.36 15.46 64.32 15.58 64.37 15.72 65.25 16.64 63.91 17.92"/><path class="cls-4" d="M65,19.24,64.77,19v0a.57.57,0,0,1-.46.11.56.56,0,0,1-.41-.2l-.22-.26.49-.4.08.09.2.13.29-.1L66,17.28l.31.39-.76.63.22.28Z"/><path class="cls-4" d="M66.06,20.69,64.83,19l.84-.61.46.63.08,0,.73-.53.76,1.05Zm.67-.87.13-.18,0-.25-.22-.14-.23.05-.14.21,0,.24.21.12Z"/><path class="cls-5" d="M43.35,2.15C23.86,2.15,8.08,20,8.08,41.9S23.86,81.66,43.35,81.66,78.62,63.86,78.62,41.9,62.82,2.15,43.35,2.15M44,65.86c-16.67,0-30.17-14-30.17-31.35S27.34,3.16,44,3.16s30.16,14,30.16,31.35S60.67,65.86,44,65.86"/><path class="cls-4" d="M43.35,2.15V1.88A33.56,33.56,0,0,0,18.21,13.61,42.52,42.52,0,0,0,7.81,41.9a42.49,42.49,0,0,0,10.4,28.29A33.53,33.53,0,0,0,43.35,81.93,33.58,33.58,0,0,0,68.5,70.19,42.58,42.58,0,0,0,78.89,41.9,42.62,42.62,0,0,0,68.5,13.61,33.61,33.61,0,0,0,43.35,1.88v.54A33.05,33.05,0,0,1,68.09,14,42.1,42.1,0,0,1,78.35,41.9,42,42,0,0,1,68.09,69.83,33.05,33.05,0,0,1,43.35,81.38,33,33,0,0,1,18.61,69.83,42,42,0,0,1,8.35,41.9,42.05,42.05,0,0,1,18.61,14,33,33,0,0,1,43.35,2.42ZM44,65.86v-.27a29.27,29.27,0,0,1-21.14-9.1,32,32,0,0,1,0-44,29.1,29.1,0,0,1,42.28,0,32,32,0,0,1,0,44A29.29,29.29,0,0,1,44,65.59v.54a29.8,29.8,0,0,0,21.53-9.26,32.5,32.5,0,0,0,0-44.71,29.64,29.64,0,0,0-43.06,0,32.5,32.5,0,0,0,0,44.71A29.79,29.79,0,0,0,44,66.13Z"/><polygon class="cls-4" points="56.03 50.9 51.82 37.39 64.02 29.2 48.88 29.39 44.17 15.43 38.79 29.48 24.67 29.48 37.47 38.1 31.84 51.84 42.59 44.12 42.27 43.68 33.06 50.3 38.13 37.9 26.45 30.02 39.17 30.02 44.14 17.04 48.49 29.93 62.2 29.76 51.18 37.17 55.5 51.06 56.03 50.9"/><path class="cls-6" d="M43.36,47.39S40.77,39.84,40,38c0,0-2.59-6.53-5.92-10,0,0-.68.69-.68,1.09l.48-1.49A47.27,47.27,0,0,1,31,22.9s.68-.68,2.58,1.23a9.92,9.92,0,0,0,2.73.81,4.4,4.4,0,0,1,1.7.69,1.57,1.57,0,0,0-1.7-1.09,1.61,1.61,0,0,1,2.31-.28A1.54,1.54,0,0,0,36,23.93s.69-3,3.07-1l.81,1.57s.13-3.34-2.52-2.93c0,0,2.79-1.5,3.82.95l.2,2,.81.13s3-2.38,4.9.27c0,0-1.7.07-2,.35,0,0-.61.2-.61.54,0,0,2.17.74,2,2.38,0,0-1.28-.34-1.56.41l-.34.41s2,.88,2.11,1.9l-.75.2a6.58,6.58,0,0,1,.48,3.07s-1.29-3.68-4.15-3.75c0,0-.89.48,1.9,3.14l.28,1.28s1.57.35,1.7.75l.4,1.84.48.2S46.83,41,47.58,42c0,0,1,1.5,2.79.21l.34-.21.13,5.85L48.6,51.4l-3.33-1.83Z"/><path class="cls-7" d="M51.19,54.2l-1.37,1.9-2-1-2,.54,3.67,2.46h-3.8l-.82-.82-.69.54L39.75,58l3.68-2L39.08,54.2s3.94.27,5,.95c0,0,5-2.32,7.09-.95"/><path class="cls-4" d="M52,46.62s-5.62-.82-7.34.09c0,0-4.63-1.63-7.71-.18L32.46,54.7s10.6-.82,11.6.54c0,0,8.17-2.36,12.07-.18Z"/><path class="cls-4" d="M52,46.62l0-.13a36,36,0,0,0-4.46-.34,7.41,7.41,0,0,0-3,.44l.07.12,0-.12a15.31,15.31,0,0,0-4.65-.8,7.43,7.43,0,0,0-3.16.62l0,0-4.59,8.42.25,0s.79-.06,2-.12,2.71-.12,4.22-.12a30.1,30.1,0,0,1,3.47.16,3.32,3.32,0,0,1,1.85.57l0,.07.09,0s.95-.27,2.36-.55a27.92,27.92,0,0,1,5.08-.55,9.54,9.54,0,0,1,4.52.91l.38.21L52,46.5H52l0,.13-.12.07L56,55.12l.12-.06.06-.12A9.71,9.71,0,0,0,51.54,54,31.46,31.46,0,0,0,44,55.11l0,.13.12-.08a3.27,3.27,0,0,0-2-.68,28.88,28.88,0,0,0-3.51-.16c-3,0-6.19.24-6.2.24l0,.14.11.06L37,46.6l-.11-.07.05.13a7.17,7.17,0,0,1,3-.6,14.74,14.74,0,0,1,3.17.39c.85.2,1.39.39,1.39.39l.06,0,.05,0a6.9,6.9,0,0,1,2.84-.42,29.52,29.52,0,0,1,3,.17c.85.08,1.42.17,1.42.17l0-.14-.12.07Z"/><path class="cls-3" d="M52,45.8s-5.62-.81-7.34.09c0,0-4.63-1.63-7.71-.17l-4.44,8.16s10.6-.82,11.6.54c0,0,8.17-2.36,12.07-.18Z"/><path class="cls-4" d="M52,45.8l0-.13a36,36,0,0,0-4.46-.34,7.24,7.24,0,0,0-3,.44l.07.12,0-.12A15.85,15.85,0,0,0,40,45a7.42,7.42,0,0,0-3.16.61l0,0L32.21,54l.25,0s.79-.06,2-.12,2.71-.12,4.22-.12a30.1,30.1,0,0,1,3.47.16,3.22,3.22,0,0,1,1.85.58l0,.07.09,0s.95-.27,2.36-.55a28,28,0,0,1,5.08-.54,9.42,9.42,0,0,1,4.52.9l.38.22L52,45.68H52l0,.13-.12.07L56,54.3l.12-.06.06-.11a9.71,9.71,0,0,0-4.65-.94A31.48,31.48,0,0,0,44,54.29l0,.13.12-.08a3.33,3.33,0,0,0-2-.68,31.06,31.06,0,0,0-3.51-.16c-3,0-6.19.24-6.2.24l0,.14.11.07L37,45.78l-.11-.06.05.11a7.31,7.31,0,0,1,3-.58,14.14,14.14,0,0,1,3.17.39,11.86,11.86,0,0,1,1.39.39h.06l.05,0a6.76,6.76,0,0,1,2.84-.41c1.05,0,2.16.08,3,.16s1.42.17,1.42.17l0-.14-.12.07Z"/><g class="cls-8"><g class="cls-9"><polyline class="cls-3" points="44.42 46.35 44.42 53.79 44.42 46.35"/><polyline class="cls-3" points="44.42 46.35 44.42 53.79 44.42 53.79 44.42 46.35 44.42 46.35"/><polyline class="cls-10" points="44.43 46.35 44.43 53.79 44.42 53.79 44.42 46.35 44.43 46.35"/><polyline class="cls-11" points="44.43 46.35 44.43 53.79 44.43 53.79 44.43 46.35 44.43 46.35"/><polyline class="cls-12" points="44.43 46.35 44.43 53.79 44.43 53.79 44.43 46.35 44.43 46.35"/><polyline class="cls-13" points="44.43 46.35 44.43 53.79 44.43 53.79 44.43 46.35 44.43 46.35"/><polyline class="cls-14" points="44.43 46.35 44.43 53.79 44.43 53.79 44.43 46.35 44.43 46.35"/><polyline class="cls-15" points="44.43 46.35 44.43 53.79 44.43 53.79 44.43 46.35 44.43 46.35"/><polyline class="cls-16" points="44.43 46.35 44.43 53.79 44.43 53.79 44.43 46.35 44.43 46.35"/><polyline class="cls-17" points="44.43 46.35 44.43 53.79 44.43 53.79 44.43 46.35 44.43 46.35"/><polyline class="cls-18" points="44.43 46.35 44.43 53.79 44.43 53.79 44.43 46.35 44.43 46.35"/><polyline class="cls-19" points="44.44 46.35 44.44 53.79 44.43 53.79 44.43 46.35 44.44 46.35"/><polyline class="cls-20" points="44.44 46.35 44.44 53.79 44.44 53.79 44.44 46.35 44.44 46.35"/><polyline class="cls-21" points="44.44 46.35 44.44 53.79 44.44 53.79 44.44 46.35 44.44 46.35"/><polyline class="cls-22" points="44.44 46.35 44.44 53.79 44.44 53.79 44.44 46.35 44.44 46.35"/><polyline class="cls-23" points="44.44 46.35 44.44 53.79 44.44 53.79 44.44 46.35 44.44 46.35"/><polyline class="cls-24" points="44.44 46.35 44.44 53.79 44.44 53.79 44.44 46.35 44.44 46.35"/><polyline class="cls-25" points="44.44 46.35 44.44 53.79 44.44 53.79 44.44 46.35 44.44 46.35"/><polyline class="cls-26" points="44.44 46.35 44.44 53.79 44.44 53.79 44.44 46.35 44.44 46.35"/><polyline class="cls-27" points="44.44 46.35 44.44 53.79 44.44 53.79 44.44 46.35 44.44 46.35"/><polyline class="cls-28" points="44.44 46.35 44.44 53.79 44.44 53.79 44.44 46.35 44.44 46.35"/><polyline class="cls-29" points="44.44 46.35 44.44 53.79 44.44 53.79 44.44 46.35 44.44 46.35"/><polyline class="cls-30" points="44.45 46.35 44.45 53.79 44.44 53.79 44.44 46.35 44.45 46.35"/><polyline class="cls-31" points="44.45 46.35 44.45 53.79 44.45 53.79 44.45 46.35 44.45 46.35"/><polyline class="cls-32" points="44.45 46.35 44.45 53.79 44.45 53.79 44.45 46.35 44.45 46.35"/><polyline class="cls-33" points="44.45 46.35 44.45 53.79 44.45 53.79 44.45 46.35 44.45 46.35"/><polyline class="cls-34" points="44.45 46.35 44.45 53.79 44.45 53.79 44.45 46.35 44.45 46.35"/><polyline class="cls-35" points="44.45 46.35 44.45 53.79 44.45 53.79 44.45 46.35 44.45 46.35"/><polyline class="cls-36" points="44.45 46.35 44.45 53.79 44.45 53.79 44.45 46.35 44.45 46.35"/><polyline class="cls-37" points="44.45 46.35 44.45 53.79 44.45 53.79 44.45 46.35 44.45 46.35"/><polyline class="cls-38" points="44.45 46.35 44.45 53.79 44.45 53.79 44.45 46.35 44.45 46.35"/><polyline class="cls-39" points="44.45 46.35 44.45 53.79 44.45 53.79 44.45 46.35 44.45 46.35"/><polyline class="cls-40" points="44.45 46.35 44.45 53.79 44.45 46.35"/><polyline class="cls-41" points="44.45 46.35 44.45 53.79 44.45 53.79 44.45 46.35 44.45 46.35"/><polyline class="cls-42" points="44.46 46.35 44.46 53.79 44.45 53.79 44.45 46.35 44.46 46.35"/><polyline class="cls-43" points="44.46 46.35 44.46 53.79 44.46 53.79 44.46 46.35 44.46 46.35"/><polyline class="cls-44" points="44.46 46.35 44.46 53.79 44.46 53.79 44.46 46.35 44.46 46.35"/><polyline class="cls-45" points="44.46 46.35 44.46 53.79 44.46 53.79 44.46 46.35 44.46 46.35"/><polyline class="cls-46" points="44.46 46.35 44.46 53.79 44.46 53.79 44.46 46.35 44.46 46.35"/><polyline class="cls-47" points="44.46 46.35 44.46 53.79 44.46 53.79 44.46 46.35 44.46 46.35"/><polyline class="cls-48" points="44.46 46.35 44.46 53.79 44.46 53.79 44.46 46.35 44.46 46.35"/><polyline class="cls-49" points="44.46 46.35 44.46 53.79 44.46 53.79 44.46 46.35 44.46 46.35"/><polyline class="cls-50" points="44.46 46.35 44.46 53.79 44.46 53.79 44.46 46.35 44.46 46.35"/><polyline class="cls-51" points="44.47 46.35 44.47 53.79 44.46 53.79 44.46 46.35 44.47 46.35"/><polyline class="cls-52" points="44.47 46.35 44.47 53.79 44.47 53.79 44.47 46.35 44.47 46.35"/><polyline class="cls-53" points="44.47 46.35 44.47 53.79 44.47 53.79 44.47 46.35 44.47 46.35"/><polyline class="cls-54" points="44.47 46.35 44.47 53.79 44.47 53.79 44.47 46.35 44.47 46.35"/><polyline class="cls-55" points="44.47 46.35 44.47 53.79 44.47 53.79 44.47 46.35 44.47 46.35"/><polyline class="cls-56" points="44.47 46.35 44.47 53.79 44.47 53.79 44.47 46.35 44.47 46.35"/><polyline class="cls-57" points="44.47 46.35 44.47 53.79 44.47 53.79 44.47 46.35 44.47 46.35"/><polyline class="cls-58" points="44.47 46.35 44.47 53.79 44.47 53.79 44.47 46.35 44.47 46.35"/><polyline class="cls-59" points="44.47 46.35 44.47 53.79 44.47 53.79 44.47 46.35 44.47 46.35"/><polyline class="cls-60" points="44.47 46.35 44.47 53.79 44.47 53.79 44.47 46.35 44.47 46.35"/><polyline class="cls-61" points="44.48 46.35 44.48 53.79 44.47 53.79 44.47 46.35 44.48 46.35"/><polyline class="cls-62" points="44.48 46.35 44.48 53.79 44.48 53.79 44.48 46.35 44.48 46.35"/><polyline class="cls-63" points="44.48 46.35 44.48 53.79 44.48 53.79 44.48 46.35 44.48 46.35"/><polyline class="cls-64" points="44.48 46.35 44.48 53.79 44.48 53.79 44.48 46.35 44.48 46.35"/><polyline class="cls-65" points="44.48 46.35 44.48 53.79 44.48 53.79 44.48 46.35 44.48 46.35"/><polyline class="cls-66" points="44.48 46.35 44.48 53.79 44.48 53.79 44.48 46.35 44.48 46.35"/><polyline class="cls-67" points="44.48 46.35 44.48 53.79 44.48 53.79 44.48 46.35 44.48 46.35"/><polyline class="cls-68" points="44.48 46.35 44.48 53.79 44.48 53.79 44.48 46.35 44.48 46.35"/><polyline class="cls-69" points="44.48 46.35 44.48 53.79 44.48 53.79 44.48 46.35 44.48 46.35"/><polyline class="cls-70" points="44.48 46.35 44.48 53.79 44.48 53.79 44.48 46.35 44.48 46.35"/><polyline class="cls-71" points="44.48 46.35 44.48 53.79 44.48 53.79 44.48 46.35 44.48 46.35"/><polyline class="cls-72" points="44.48 46.35 44.48 53.79 44.48 53.79 44.48 46.35 44.48 46.35"/><polyline class="cls-73" points="44.49 46.35 44.49 53.79 44.48 53.79 44.48 46.35 44.49 46.35"/><polyline class="cls-74" points="44.49 46.35 44.49 53.79 44.49 53.79 44.49 46.35 44.49 46.35"/><polyline class="cls-75" points="44.49 46.35 44.49 53.79 44.49 53.79 44.49 46.35 44.49 46.35"/><polyline class="cls-76" points="44.49 46.35 44.49 53.79 44.49 53.79 44.49 46.35 44.49 46.35"/><polyline class="cls-77" points="44.49 46.35 44.49 53.79 44.49 53.79 44.49 46.35 44.49 46.35"/><polyline class="cls-78" points="44.49 46.35 44.49 53.79 44.49 53.79 44.49 46.35 44.49 46.35"/><polyline class="cls-79" points="44.49 46.35 44.49 53.79 44.49 53.79 44.49 46.35 44.49 46.35"/><polyline class="cls-80" points="44.49 46.35 44.49 53.79 44.49 53.79 44.49 46.35 44.49 46.35"/><polyline class="cls-81" points="44.49 46.35 44.49 53.79 44.49 53.79 44.49 46.35 44.49 46.35"/><polyline class="cls-82" points="44.49 46.35 44.49 53.79 44.49 53.79 44.49 46.35 44.49 46.35"/><polyline class="cls-83" points="44.5 46.35 44.5 53.79 44.49 53.79 44.49 46.35 44.5 46.35"/><polyline class="cls-84" points="44.5 46.35 44.5 53.79 44.5 53.79 44.5 46.35 44.5 46.35"/><polyline class="cls-85" points="44.5 46.35 44.5 53.79 44.5 53.79 44.5 46.35 44.5 46.35"/><polyline class="cls-86" points="44.5 46.35 44.5 53.79 44.5 53.79 44.5 46.35 44.5 46.35"/><polyline class="cls-87" points="44.5 46.35 44.5 53.79 44.5 53.79 44.5 46.35 44.5 46.35"/><polyline class="cls-88" points="44.5 46.35 44.5 53.79 44.5 53.79 44.5 46.35 44.5 46.35"/><polyline class="cls-89" points="44.5 46.35 44.5 53.79 44.5 53.79 44.5 46.35 44.5 46.35"/><polyline class="cls-90" points="44.5 46.35 44.5 53.79 44.5 53.79 44.5 46.35 44.5 46.35"/><polyline class="cls-91" points="44.5 46.35 44.5 53.79 44.5 53.79 44.5 46.35 44.5 46.35"/><polyline class="cls-92" points="44.51 46.35 44.51 53.79 44.5 53.79 44.5 46.35 44.51 46.35"/><polyline class="cls-93" points="44.51 46.35 44.51 53.79 44.51 53.79 44.51 46.35 44.51 46.35"/><polyline class="cls-94" points="44.51 46.35 44.51 53.79 44.51 53.79 44.51 46.35 44.51 46.35"/><polyline class="cls-95" points="44.51 46.35 44.51 53.79 44.51 53.79 44.51 46.35 44.51 46.35"/><polyline class="cls-96" points="44.51 46.35 44.51 53.79 44.51 53.79 44.51 46.35 44.51 46.35"/><polyline class="cls-97" points="44.51 46.35 44.51 53.79 44.51 53.79 44.51 46.35 44.51 46.35"/><polyline class="cls-98" points="44.51 46.35 44.51 53.79 44.51 53.79 44.51 46.35 44.51 46.35"/><polyline class="cls-99" points="44.51 46.35 44.51 53.79 44.51 53.79 44.51 46.35 44.51 46.35"/><polyline class="cls-100" points="44.51 46.35 44.51 53.79 44.51 53.79 44.51 46.35 44.51 46.35"/><polyline class="cls-101" points="44.51 46.35 44.51 53.79 44.51 53.79 44.51 46.35 44.51 46.35"/><polyline class="cls-102" points="44.52 46.35 44.52 53.79 44.51 53.79 44.51 46.35 44.52 46.35"/><polyline class="cls-103" points="44.52 53.79 44.52 46.35 44.52 53.79"/><polyline class="cls-104" points="44.52 46.35 44.52 53.79 44.52 53.79 44.52 46.35 44.52 46.35"/><polyline class="cls-105" points="44.52 46.35 44.52 53.79 44.52 53.79 44.52 46.35 44.52 46.35"/><polyline class="cls-106" points="44.52 46.35 44.52 53.79 44.52 53.79 44.52 46.35 44.52 46.35"/><polyline class="cls-107" points="44.52 46.35 44.52 53.79 44.52 53.79 44.52 46.35 44.52 46.35"/><polyline class="cls-108" points="44.52 46.35 44.52 53.79 44.52 53.79 44.52 46.35 44.52 46.35"/><polyline class="cls-109" points="44.52 46.35 44.52 53.79 44.52 53.79 44.52 46.35 44.52 46.35"/><polyline class="cls-110" points="44.52 46.35 44.52 53.79 44.52 53.79 44.52 46.35 44.52 46.35"/><polyline class="cls-111" points="44.52 46.35 44.52 53.79 44.52 53.79 44.52 46.35 44.52 46.35"/><polyline class="cls-112" points="44.52 46.35 44.52 53.79 44.52 53.79 44.52 46.35 44.52 46.35"/><polyline class="cls-113" points="44.52 46.35 44.52 53.79 44.52 53.79 44.52 46.35 44.52 46.35"/><polyline class="cls-114" points="44.52 46.35 44.52 53.79 44.52 53.79 44.52 46.35 44.52 46.35"/><polyline class="cls-115" points="44.53 46.35 44.53 53.79 44.52 53.79 44.52 46.35 44.53 46.35"/><polyline class="cls-116" points="44.53 46.35 44.53 53.79 44.53 53.79 44.53 46.35 44.53 46.35"/><polyline class="cls-117" points="44.53 46.35 44.53 53.79 44.53 53.79 44.53 46.35 44.53 46.35"/><polyline class="cls-118" points="44.53 46.35 44.53 53.79 44.53 53.79 44.53 46.35 44.53 46.35"/><polyline class="cls-119" points="44.53 46.35 44.53 53.79 44.53 53.79 44.53 46.35 44.53 46.35"/><polyline class="cls-120" points="44.53 46.35 44.53 53.79 44.53 53.79 44.53 46.35 44.53 46.35"/><polyline class="cls-121" points="44.53 46.35 44.53 53.79 44.53 53.79 44.53 46.35 44.53 46.35"/><polyline class="cls-122" points="44.53 46.35 44.53 53.79 44.53 53.79 44.53 46.35 44.53 46.35"/><polyline class="cls-123" points="44.53 46.35 44.53 53.79 44.53 53.79 44.53 46.35 44.53 46.35"/><polyline class="cls-124" points="44.53 46.35 44.53 53.79 44.53 53.79 44.53 46.35 44.53 46.35"/><polyline class="cls-125" points="44.54 46.35 44.54 53.79 44.53 53.79 44.53 46.35 44.54 46.35"/><polyline class="cls-126" points="44.54 46.35 44.54 53.79 44.54 53.79 44.54 46.35 44.54 46.35"/><polyline class="cls-127" points="44.54 46.35 44.54 53.79 44.54 53.79 44.54 46.35 44.54 46.35"/><polyline class="cls-128" points="44.54 46.35 44.54 53.79 44.54 53.79 44.54 46.35 44.54 46.35"/><polyline class="cls-129" points="44.54 46.35 44.54 53.79 44.54 53.79 44.54 46.35 44.54 46.35"/><polyline class="cls-130" points="44.54 46.35 44.54 53.79 44.54 53.79 44.54 46.35 44.54 46.35"/><polyline class="cls-131" points="44.54 46.35 44.54 53.79 44.54 53.79 44.54 46.35 44.54 46.35"/><polyline class="cls-132" points="44.54 46.35 44.54 53.79 44.54 53.79 44.54 46.35 44.54 46.35"/><polyline class="cls-133" points="44.54 46.35 44.54 53.79 44.54 53.79 44.54 46.35 44.54 46.35"/><polyline class="cls-134" points="44.55 46.35 44.55 53.79 44.54 53.79 44.54 46.35 44.55 46.35"/><polyline class="cls-135" points="44.55 46.35 44.55 53.79 44.55 53.79 44.55 46.35 44.55 46.35"/><polyline class="cls-136" points="44.55 46.35 44.55 53.79 44.55 53.79 44.55 46.35 44.55 46.35"/><polyline class="cls-137" points="44.55 46.35 44.55 53.79 44.55 53.79 44.55 46.35 44.55 46.35"/><polyline class="cls-138" points="44.55 46.35 44.55 53.79 44.55 53.79 44.55 46.35 44.55 46.35"/><polyline class="cls-139" points="44.55 46.35 44.55 53.79 44.55 53.79 44.55 46.35 44.55 46.35"/><polyline class="cls-140" points="44.55 46.35 44.55 53.79 44.55 53.79 44.55 46.35 44.55 46.35"/><polyline class="cls-141" points="44.55 46.35 44.55 53.79 44.55 53.79 44.55 46.35 44.55 46.35"/><polyline class="cls-142" points="44.55 46.35 44.55 53.79 44.55 53.79 44.55 46.35 44.55 46.35"/><polyline class="cls-143" points="44.55 46.35 44.55 53.79 44.55 53.79 44.55 46.35 44.55 46.35"/><polyline class="cls-144" points="44.55 46.35 44.55 53.79 44.55 53.79 44.55 46.35 44.55 46.35"/><polyline class="cls-145" points="44.56 46.35 44.56 53.79 44.55 53.79 44.55 46.35 44.56 46.35"/><polyline class="cls-146" points="44.56 46.35 44.56 53.79 44.56 53.79 44.56 46.35 44.56 46.35"/><polyline class="cls-147" points="44.56 46.35 44.56 53.79 44.56 53.79 44.56 46.35 44.56 46.35"/><polyline class="cls-148" points="44.56 46.35 44.56 53.79 44.56 53.79 44.56 46.35 44.56 46.35"/><polyline class="cls-149" points="44.56 46.35 44.56 53.79 44.56 53.79 44.56 46.35 44.56 46.35"/><polyline class="cls-150" points="44.56 46.35 44.56 53.79 44.56 53.79 44.56 46.35 44.56 46.35"/><polyline class="cls-151" points="44.56 46.35 44.56 53.79 44.56 53.79 44.56 46.35 44.56 46.35"/><polyline class="cls-152" points="44.56 46.35 44.56 53.79 44.56 53.79 44.56 46.35 44.56 46.35"/><polyline class="cls-153" points="44.56 46.35 44.56 53.79 44.56 53.79 44.56 46.35 44.56 46.35"/><polyline class="cls-154" points="44.56 46.35 44.56 53.79 44.56 53.79 44.56 46.35 44.56 46.35"/><polyline class="cls-155" points="44.56 46.35 44.56 53.79 44.56 53.79 44.56 46.35 44.56 46.35"/><polyline class="cls-156" points="44.57 46.35 44.57 53.79 44.56 53.79 44.56 46.35 44.57 46.35"/><polyline class="cls-157" points="44.57 46.35 44.57 53.79 44.57 53.79 44.57 46.35 44.57 46.35"/><polyline class="cls-158" points="44.57 46.35 44.57 53.79 44.57 53.79 44.57 46.35 44.57 46.35"/><polyline class="cls-159" points="44.57 46.35 44.57 53.79 44.57 53.79 44.57 46.35 44.57 46.35"/><polyline class="cls-160" points="44.57 46.35 44.57 53.79 44.57 53.79 44.57 46.35 44.57 46.35"/><polyline class="cls-161" points="44.57 46.35 44.57 53.79 44.57 53.79 44.57 46.35 44.57 46.35"/><polyline class="cls-162" points="44.57 46.35 44.57 53.79 44.57 53.79 44.57 46.35 44.57 46.35"/><polyline class="cls-163" points="44.57 46.35 44.57 53.79 44.57 53.79 44.57 46.35 44.57 46.35"/><polyline class="cls-164" points="44.57 46.35 44.57 53.79 44.57 53.79 44.57 46.35 44.57 46.35"/><polyline class="cls-165" points="44.58 46.35 44.58 53.79 44.57 53.79 44.57 46.35 44.58 46.35"/><polyline class="cls-166" points="44.58 46.35 44.58 53.79 44.58 53.79 44.58 46.35 44.58 46.35"/><polyline class="cls-167" points="44.58 46.35 44.58 53.79 44.58 46.35"/><polyline class="cls-168" points="44.58 46.35 44.58 53.79 44.58 53.79 44.58 46.35 44.58 46.35"/><polyline class="cls-169" points="44.58 46.35 44.58 53.79 44.58 53.79 44.58 46.35 44.58 46.35"/><polyline class="cls-170" points="44.58 46.35 44.58 53.79 44.58 53.79 44.58 46.35 44.58 46.35"/><polyline class="cls-171" points="44.58 46.35 44.58 53.79 44.58 53.79 44.58 46.35 44.58 46.35"/><polyline class="cls-172" points="44.58 46.35 44.58 53.79 44.58 53.79 44.58 46.35 44.58 46.35"/><polyline class="cls-173" points="44.58 46.35 44.58 53.79 44.58 53.79 44.58 46.35 44.58 46.35"/><polyline class="cls-174" points="44.58 46.35 44.58 53.79 44.58 53.79 44.58 46.35 44.58 46.35"/><polyline class="cls-175" points="44.58 46.35 44.58 53.79 44.58 53.79 44.58 46.35 44.58 46.35"/><polyline class="cls-176" points="44.59 46.35 44.59 53.79 44.58 53.79 44.58 46.35 44.59 46.35"/><polyline class="cls-177" points="44.59 46.35 44.59 53.79 44.59 53.79 44.59 46.35 44.59 46.35"/><polyline class="cls-178" points="44.59 46.35 44.59 53.79 44.59 53.79 44.59 46.35 44.59 46.35"/><polyline class="cls-179" points="44.59 46.35 44.59 53.79 44.59 53.79 44.59 46.35 44.59 46.35"/><polyline class="cls-180" points="44.59 46.35 44.59 53.79 44.59 53.79 44.59 46.35 44.59 46.35"/><polyline class="cls-181" points="44.59 46.35 44.59 53.79 44.59 53.79 44.59 46.35 44.59 46.35"/><polyline class="cls-182" points="44.59 46.35 44.59 53.79 44.59 53.79 44.59 46.35 44.59 46.35"/><polyline class="cls-183" points="44.59 46.35 44.59 53.79 44.59 53.79 44.59 46.35 44.59 46.35"/><polyline class="cls-184" points="44.59 46.35 44.59 53.79 44.59 53.79 44.59 46.35 44.59 46.35"/><polyline class="cls-185" points="44.59 46.35 44.59 53.79 44.59 53.79 44.59 46.35 44.59 46.35"/><polyline class="cls-186" points="44.59 46.35 44.59 53.79 44.59 53.79 44.59 46.35 44.59 46.35"/><polyline class="cls-187" points="44.6 46.35 44.6 53.79 44.59 53.79 44.59 46.35 44.6 46.35"/><polyline class="cls-188" points="44.6 46.35 44.6 53.79 44.6 53.79 44.6 46.35 44.6 46.35"/><polyline class="cls-189" points="44.6 46.35 44.6 53.79 44.6 53.79 44.6 46.35 44.6 46.35"/><polyline class="cls-190" points="44.6 46.35 44.6 53.79 44.6 53.79 44.6 46.35 44.6 46.35"/><polyline class="cls-191" points="44.6 46.35 44.6 53.79 44.6 53.79 44.6 46.35 44.6 46.35"/><polyline class="cls-192" points="44.6 46.35 44.6 53.79 44.6 53.79 44.6 46.35 44.6 46.35"/><polyline class="cls-193" points="44.6 46.35 44.6 53.79 44.6 53.79 44.6 46.35 44.6 46.35"/><polyline class="cls-194" points="44.6 46.35 44.6 53.79 44.6 53.79 44.6 46.35 44.6 46.35"/><polyline class="cls-195" points="44.6 46.35 44.6 53.79 44.6 53.79 44.6 46.35 44.6 46.35"/><polyline class="cls-196" points="44.6 46.35 44.6 53.79 44.6 53.79 44.6 46.35 44.6 46.35"/><polyline class="cls-4" points="44.6 46.35 44.6 53.79 44.6 53.79 44.6 46.35 44.6 46.35"/><polyline class="cls-4" points="44.6 53.79 44.6 46.35 44.61 46.35 44.61 53.79 44.6 53.79"/></g></g><polyline class="cls-4" points="44.7 53.79 44.88 46.36 44.34 46.34 44.15 53.78"/><path class="cls-4" d="M16.48,37h1.73c0,.44,0,.86,0,1.28a2.33,2.33,0,0,1,0,.55,1.28,1.28,0,0,1-.15.43l-.25.27-.34.13a.67.67,0,0,1-.51-.15,1.32,1.32,0,0,1-.36-.55l-.07-.36c0-.52,0-1.06,0-1.6M18,37.5l-1.22,0c0,.29,0,.57,0,.85v.15l0,.13.05.12.08.12L17,39l.12,0,.13,0h.17L17.7,39l.17-.19.08-.27,0-.35c0-.24,0-.46,0-.71"/><path class="cls-4" d="M18.37,40.09l.06.49-1.21.17-.12.08L17,41l0,.24,0,.31.06.28.11.21.12.13.14,0,1.2-.24c0,.16.05.32.09.47l-1.21.27-.24,0-.22-.21a1.42,1.42,0,0,1-.17-.37,1.76,1.76,0,0,1-.13-.49,3.32,3.32,0,0,1,0-.53,2.35,2.35,0,0,1,.06-.42l.14-.28.22-.11,1.22-.15"/><path class="cls-4" d="M17.17,43.45,18.86,43c.09.42.2.85.31,1.25l0,.3,0,.27-.09.21-.16.12h-.21L18.52,45v.2l0,.15-.08.11-.13.07h-.2l-.22-.13-.18-.21-.11-.26c-.15-.49-.27-1-.38-1.49m1.55.13-.45.11c.05.23.11.46.18.68s.19.42.33.38l.13-.2a1.45,1.45,0,0,0-.05-.43c-.05-.18-.1-.36-.14-.54m-.7.18-.49.12c.08.29.15.59.23.87l.07.17.09.11.1.06h.12l.13-.21a1.58,1.58,0,0,0-.08-.47c-.05-.22-.11-.44-.17-.65"/><path class="cls-4" d="M19,47.61c-.13-.3-.25-.61-.37-.92l-.58-.11-.17-.48c.67.15,1.34.28,2,.38l.18.46c-.41.52-.81,1.06-1.19,1.61-.08-.16-.15-.32-.22-.48l.35-.46m-.09-.88c.08.22.17.44.26.65l.43-.54-.69-.11"/><path class="cls-4" d="M19.07,48.94l1.57-.75.2.39-1.56.77-.21-.41"/><path class="cls-4" d="M21.66,50l.22.37c-.21.14-.44.27-.66.4.44.21.88.41,1.33.58.11.16.22.31.34.46-.42-.15-.84-.32-1.25-.5-.08.48-.15,1-.2,1.46l-.31-.42c0-.4.11-.8.17-1.19L20.9,51c-.17.09-.34.2-.5.3l-.25-.39L21.66,50"/><path class="cls-4" d="M21.78,53.26c.47-.35.93-.69,1.4-1,.38.48.78.94,1.19,1.38l-.19.17c-.33-.34-.64-.7-.94-1.07l-.36.27c.29.37.59.71.9,1l-.19.16c-.32-.34-.62-.69-.92-1.05l-.4.3a14.1,14.1,0,0,0,1,1.16l-.2.17c-.46-.49-.89-1-1.31-1.52"/><path class="cls-4" d="M23.47,55.18,24.77,54l.83.8.27.28.14.24v.21l-.12.18-.09.07-.1,0h-.12l-.18,0,.05.14v.1l-.05.1-.09.14-.1.1,0,.08v.06l0,.08-.08.07-.36-.32.15-.28.17-.22h0l-.17-.32L24.32,55l-.53.48-.32-.32m1.41-.67-.38.33c.19.19.38.36.56.53l.27.16.22-.05,0,0c.11-.1.05-.25-.15-.43l-.54-.52"/><path class="cls-4" d="M27,57.54c-.26-.18-.5-.36-.74-.55l-.55.2-.36-.3c.65-.2,1.27-.42,1.91-.66l.35.27c-.12.61-.23,1.23-.31,1.85l-.41-.27c0-.18.07-.36.11-.54m-.48-.65.52.39c0-.22.09-.43.14-.64l-.66.25"/><path class="cls-4" d="M28.58,57.17l.35.22c-.28.39-.58.78-.87,1.17.36.23.73.45,1.1.66l-.14.21c-.5-.29-1-.59-1.48-.91l1-1.35"/><path class="cls-4" d="M31,59.92c-.29-.14-.57-.27-.84-.42-.16.1-.34.2-.5.28l-.41-.21c.6-.32,1.18-.64,1.75-1l.41.2c0,.62,0,1.24,0,1.87a3.68,3.68,0,0,1-.45-.21c0-.18,0-.35,0-.53m-.6-.56.58.29L31,59c-.2.12-.4.24-.61.35"/><path class="cls-4" d="M34.85,61.92l.39-1.07c-.32.3-.66.6-1,.89l-.4-.14c-.06-.42-.1-.85-.13-1.26-.16.34-.32.7-.47,1l-.42-.15.71-1.52.49.18c0,.48.1,1,.16,1.44.39-.33.77-.66,1.14-1l.51.15c-.18.52-.37,1.05-.56,1.57l-.42-.13"/><path class="cls-4" d="M36.38,60.64l.41.1c-.11.38-.23.75-.35,1.12l0,.14.09.11.17.11.25.08.25,0h.21l.14-.07.07-.11.3-1.13.41.08c-.09.39-.18.77-.28,1.15l-.12.19-.25.12-.36,0a1.78,1.78,0,0,1-.44-.06,1.81,1.81,0,0,1-.43-.14l-.29-.2L36,62v-.21c.13-.38.25-.76.37-1.13"/><path class="cls-4" d="M40.28,61.93v0l-.12-.2a.91.91,0,0,0-.43-.14h-.21l-.15,0-.12.06-.06.08,0,.09.09.07.19.08.29.1h0l.23.06.27.09.17.07.13.12.09.12,0,.12v0l-.12.2-.24.14L40,63a1.42,1.42,0,0,1-.41,0h0L39.23,63,39,62.89l-.18-.1-.14-.12-.08-.1,0-.08v-.11l0-.14.41.07v0l.13.26a1.18,1.18,0,0,0,.49.16l.09,0h.23l.17,0,.11-.07.05-.08,0-.09-.1-.07-.2-.08-.33-.12-.17,0-.09,0h0l-.21-.08L38.93,62l-.13-.14,0-.19.11-.19.22-.12.3-.05.36,0a2.31,2.31,0,0,1,.43.09l.3.15.17.18,0,.19h0v0l0,0-.38,0"/><path class="cls-4" d="M41.23,61.51l.42,0c0,.47-.09.94-.15,1.4.44,0,.87.06,1.3.08v.25c-.59,0-1.17-.07-1.76-.13.07-.55.13-1.1.2-1.64"/><path class="cls-4" d="M43.32,63.29c0-.55,0-1.1,0-1.65h.42c0,.54,0,1.1,0,1.65h-.45"/><path class="cls-4" d="M46.59,63.21c0-.38-.07-.75-.11-1.13-.16.4-.35.79-.53,1.17l-.43,0c-.23-.37-.46-.75-.67-1.12l0,1.14h-.46c0-.55,0-1.1,0-1.65H45c.24.42.5.85.77,1.27.21-.45.41-.89.6-1.33l.54,0L47,63.18l-.45,0"/><path class="cls-4" d="M50.25,61.61a.73.73,0,0,0-.71-.21l-.3.1-.2.16-.1.22v.25l.09.24.18.17.27.08h.33a.66.66,0,0,0,.6-.57l.43-.09-.07.31-.21.26-.3.21a1.87,1.87,0,0,1-.4.13h0a2.37,2.37,0,0,1-.52,0,1.09,1.09,0,0,1-.42-.13l-.28-.23-.13-.33a.69.69,0,0,1,.08-.51,1.11,1.11,0,0,1,.47-.39l.22-.07.22-.06a1.44,1.44,0,0,1,.69,0,1,1,0,0,1,.51.34l-.44.09"/><path class="cls-4" d="M51,60.88l.41-.09.34,1.12.08.11.15.06h.22l.25-.05.24-.08.16-.12.09-.12v-.13l-.39-1.1.4-.13.42,1.12v.22l-.15.22-.29.2a1.77,1.77,0,0,1-.41.15,1.86,1.86,0,0,1-.45.08l-.35,0-.27-.11L51.29,62c-.1-.38-.21-.75-.32-1.14"/><path class="cls-4" d="M53.37,60.22l.4-.13.54,1.31c.41-.13.81-.28,1.21-.43l.11.22c-.54.21-1.09.41-1.65.59l-.61-1.56"/><path class="cls-4" d="M56.69,60.75,56,59.48c-.25.11-.51.22-.76.31l-.11-.21c.63-.26,1.25-.53,1.86-.83l.12.21-.73.35.69,1.26-.41.18"/><path class="cls-4" d="M57.32,58.59l.38-.19.63,1,.11.08.16,0,.21,0,.23-.1.2-.15.14-.14,0-.15,0-.12c-.22-.33-.46-.66-.69-1l.37-.21.7,1,.06.22-.08.24-.22.27a2.07,2.07,0,0,1-.36.25,1.38,1.38,0,0,1-.4.17l-.36.07-.28,0L58,59.63c-.21-.35-.41-.7-.63-1"/><path class="cls-4" d="M60.58,58.67l-1-1.36c.32-.2.64-.42,1-.65l.33-.2.27-.08.22,0,.18.14.06.09,0,.1v.12L61.5,57l.16,0h.11l.1.06.12.11.1.09.07.06.07,0h.08l.07.07-.38.3-.29-.17-.19-.2h0c-.09,0-.21,0-.36.11l-.64.44.43.56-.37.24m-.53-1.39.31.39.63-.43L61.2,57l0-.21h0c-.1-.12-.26-.09-.48.07s-.41.28-.62.42"/><path class="cls-4" d="M63.56,55.76l-.69.61c0,.18.09.36.12.54l-.36.29c-.12-.63-.27-1.25-.44-1.86l.35-.3c.63.2,1.27.39,1.92.55l-.35.33-.55-.16m-.76.36.48-.44-.65-.21c.06.21.11.42.17.65"/><path class="cls-4" d="M63.39,54.23l.3-.3,1.11,1c.3-.3.59-.62.87-.94l.2.16c-.38.44-.78.86-1.19,1.27-.43-.39-.85-.77-1.29-1.15"/><path class="cls-4" d="M66.92,50.78a.69.69,0,0,0-.65.36l-.14.28,0,.27.09.23.19.19.24.11h.26l.25-.12.23-.25a.69.69,0,0,0,0-.86l.24-.38.19.28,0,.35-.06.37-.19.38h0a1.7,1.7,0,0,1-.36.39l-.38.2-.38,0-.34-.14a.79.79,0,0,1-.32-.43,1,1,0,0,1,0-.62l.09-.21.12-.2a1.29,1.29,0,0,1,.51-.48,1.05,1.05,0,0,1,.61-.13l-.25.39"/><path class="cls-4" d="M68.43,50.55,66.9,49.7c.32-.55.62-1.1.89-1.68l.24.1c-.22.46-.44.89-.68,1.32l.41.22c.23-.42.45-.84.66-1.29l.23.11c-.21.45-.44.88-.67,1.3l.45.24c.26-.47.51-.94.74-1.43l.23.11c-.3.63-.63,1.25-1,1.85"/><path class="cls-4" d="M70.49,46c-.06.16-.12.33-.17.49-.55.28-1.1.54-1.66.77l1.17.49c-.06.15-.12.29-.19.44l-1.6-.7c.07-.15.14-.3.2-.45.55-.22,1.1-.46,1.64-.74l-1.19-.43.15-.44,1.65.57"/><path class="cls-4" d="M70.89,44.63l-1.42-.41c-.08.3-.17.59-.26.88L69,45c.22-.71.42-1.45.58-2.21l.25,0c-.06.31-.14.6-.2.9l1.42.39c0,.16-.08.32-.13.48"/><path class="cls-4" d="M71.34,42.73l-1.7-.36c.08-.43.16-.88.23-1.33a3.93,3.93,0,0,1,.08-.46l.13-.29.17-.16.24,0,.1,0,.08.06.08.12.07.19.09-.15.08-.08.12,0h.4l.06,0,.05-.08.1,0c0,.19,0,.38-.07.58l-.32.08h-.28c-.09,0-.15.18-.18.4s-.09.61-.14.91l.7.14-.09.5M70,42l.49.09.15-.89a.91.91,0,0,0,0-.38l-.16-.16h0c-.15,0-.25.13-.3.46S70,41.66,70,42"/><path class="cls-4" d="M71.78,39.47l-1.73-.16c.06-.74.09-1.5.09-2.27h.26c0,.6,0,1.19-.05,1.78l.45,0q.06-.85.06-1.74h.25c0,.6,0,1.18,0,1.76l.51,0c0-.63.05-1.27.05-1.94h.25c0,.86,0,1.69-.09,2.51"/><path class="cls-3" d="M31.08,66.35c.33.25.65.48,1,.7-.55.84-1.1,1.68-1.64,2.53A22.41,22.41,0,0,0,35,68.65c.47.21,1,.42,1.44.6a21.68,21.68,0,0,1-4.1,1.18,27.6,27.6,0,0,0,1.58,5.06c-.55-.21-1.1-.44-1.64-.68a28.64,28.64,0,0,1-1.13-4.19c-.48.07-1,.12-1.48.16l-1.23,1.91c-.44-.28-.87-.58-1.3-.89,1.32-1.82,2.64-3.62,4-5.45"/><path class="cls-3" d="M42.74,77.44c.1-1.54.19-3.08.29-4.62a35.77,35.77,0,0,1-2.42,4.4c-.46-.06-.92-.13-1.38-.22a37.26,37.26,0,0,1-.92-4.94l-1.17,4.48c-.49-.13-1-.27-1.45-.42.67-2.14,1.35-4.27,2-6.42.47.15.95.28,1.42.4a37.48,37.48,0,0,0,1,5.58,37.06,37.06,0,0,0,2.7-5c.48,0,1,.06,1.46.07q-.06,3.36-.09,6.73c-.5,0-1,0-1.5-.06"/><path class="cls-3" d="M51.1,72.19A2,2,0,0,0,49,71.27a2.34,2.34,0,0,0-.86.33,1.85,1.85,0,0,0-.58.6,2.24,2.24,0,0,0-.33.84,3.78,3.78,0,0,0-.05,1,3.34,3.34,0,0,0,.25,1,2.08,2.08,0,0,0,.55.74,2,2,0,0,0,.84.42,2.65,2.65,0,0,0,1.09,0,2.22,2.22,0,0,0,1.84-2.28c.44-.12.88-.26,1.32-.4a3.11,3.11,0,0,1-.68,2.36,3.77,3.77,0,0,1-2.3,1.31l0,0a4.43,4.43,0,0,1-1.75,0A3.23,3.23,0,0,1,47,76.58a2.87,2.87,0,0,1-.82-1.07,3.72,3.72,0,0,1-.31-1.36,4.2,4.2,0,0,1,.39-2,3.15,3.15,0,0,1,1.39-1.41,6.07,6.07,0,0,1,.59-.27c.19-.06.4-.13.61-.18a3.37,3.37,0,0,1,1.93.19,4,4,0,0,1,1.63,1.37c-.41.12-.84.25-1.26.36"/><path class="cls-3" d="M58.31,69a2.09,2.09,0,0,0-2.34-.2,2.47,2.47,0,0,0-.74.59,2.15,2.15,0,0,0-.39.75,2.71,2.71,0,0,0-.06.91,3.59,3.59,0,0,0,.27,1,2.86,2.86,0,0,0,.54.86,1.87,1.87,0,0,0,.75.54,2.07,2.07,0,0,0,.94.14,2.82,2.82,0,0,0,1.06-.33,2.29,2.29,0,0,0,1.11-2.78c.39-.26.8-.53,1.18-.81a3,3,0,0,1,.27,1.23,3,3,0,0,1-.24,1.25A3.85,3.85,0,0,1,60,73.28a4.21,4.21,0,0,1-1.13.87l0,0a4.62,4.62,0,0,1-1.7.53,3.48,3.48,0,0,1-1.47-.18,3,3,0,0,1-1.12-.76,3.7,3.7,0,0,1-.7-1.21,4.12,4.12,0,0,1-.24-2,3.32,3.32,0,0,1,.91-1.78A6.47,6.47,0,0,1,55,68.3a4.1,4.1,0,0,1,.53-.36,3.3,3.3,0,0,1,1.94-.45,4.07,4.07,0,0,1,2,.77c-.37.26-.75.51-1.13.76"/></svg>